<?xml version="1.0" encoding="UTF-8" standalone="no"?>
<svg
   xmlns:dc="http://purl.org/dc/elements/1.1/"
   xmlns:cc="http://creativecommons.org/ns#"
   xmlns:rdf="http://www.w3.org/1999/02/22-rdf-syntax-ns#"
   xmlns:svg="http://www.w3.org/2000/svg"
   xmlns="http://www.w3.org/2000/svg"
   viewBox="0 0 32 32"
   version="1.1"
   id="svg20"
   inkscape:version="0.92.3 (2405546, 2018-03-11)">
  <metadata
     id="metadata26">
    <rdf:RDF>
      <cc:Work
         rdf:about="">
        <dc:format>image/svg+xml</dc:format>
        <dc:type
           rdf:resource="http://purl.org/dc/dcmitype/StillImage" />
        <dc:title>folder_type_gitlab</dc:title>
      </cc:Work>
    </rdf:RDF>
  </metadata>
  <defs
     id="defs24" />
  <sodipodi:namedview
     pagecolor="#ffffff"
     bordercolor="#666666"
     borderopacity="1"
     objecttolerance="10"
     gridtolerance="10"
     guidetolerance="10"
     inkscape:pageopacity="0"
     inkscape:pageshadow="2"
     inkscape:window-width="1920"
     inkscape:window-height="1007"
     id="namedview22"
     showgrid="false"
     inkscape:zoom="20.85965"
     inkscape:cx="11.920872"
     inkscape:cy="16.06201"
     inkscape:window-x="0"
     inkscape:window-y="0"
     inkscape:window-maximized="1"
     inkscape:current-layer="svg20" />
  <title
     id="title2">folder_type_gitlab</title>
  <path
     d="M27.5,5.5H18.2L16.1,9.7H4.4V26.5H29.6V5.5Zm0,4.2H19.3l1.1-2.1h7.1Z"
     style="fill:#008080"
     id="path4" />
  <polygon
     points="20.5 30.972 20.5 30.972 24.367 19.072 16.633 19.072 20.5 30.972"
     style="fill:#e24329"
     id="polygon6" />
  <polygon
     points="20.5 30.972 16.633 19.072 11.214 19.072 20.5 30.972"
     style="fill:#fc6d26"
     id="polygon8" />
  <path
     d="M11.214,19.072h0l-1.175,3.616a.8.8,0,0,0,.291.895L20.5,30.975Z"
     style="fill:#fca326"
     id="path10" />
  <path
     d="M11.214,19.072h5.419L14.3,11.905a.4.4,0,0,0-.761,0Z"
     style="fill:#e24329"
     id="path12" />
  <polygon
     points="20.5 30.972 24.367 19.072 29.786 19.072 20.5 30.972"
     style="fill:#fc6d26"
     id="polygon14" />
  <path
     d="M29.786,19.072h0l1.175,3.616a.8.8,0,0,1-.291.895L20.5,30.975Z"
     style="fill:#fca326"
     id="path16" />
  <path
     d="M29.786,19.072H24.367L26.7,11.9a.4.4,0,0,1,.761,0Z"
     style="fill:#e24329"
     id="path18" />
</svg>
